<svg width="288" height="60" viewBox="0 0 288 60" fill="none" xmlns="http://www.w3.org/2000/svg">
<rect x="0.151367" y="7.43066" width="287.294" height="45.4561" rx="22.728" fill="#F9CBC8"/>
<path d="M144.666 24.5815L143.92 27.2129H129.954L130.699 24.5815H144.666ZM137.869 41.1582L130.241 31.9004L130.22 29.823H134.002C134.947 29.823 135.746 29.6774 136.399 29.3862C137.052 29.095 137.55 28.6724 137.89 28.1184C138.231 27.5574 138.402 26.8755 138.402 26.073C138.402 24.8798 138.047 23.9316 137.337 23.2285C136.626 22.5254 135.515 22.1738 134.002 22.1738H129.954L130.731 19.34H134.002C135.763 19.34 137.216 19.6206 138.359 20.1816C139.503 20.7427 140.355 21.5204 140.916 22.5147C141.477 23.5091 141.758 24.6561 141.758 25.9558C141.758 27.1135 141.527 28.161 141.065 29.0985C140.604 30.036 139.868 30.7995 138.86 31.389C137.851 31.9785 136.527 32.323 134.886 32.4224L134.79 32.4437L141.758 40.9771V41.1582H137.869ZM144.677 19.34L143.92 21.9927L132.756 21.9288L133.512 19.34H144.677ZM154.851 41.4565C153.515 41.4565 152.315 41.2008 151.25 40.6895C150.192 40.171 149.346 39.4608 148.714 38.5588C148.082 37.6568 147.745 36.627 147.702 35.4693H150.898C150.976 36.4068 151.392 37.1774 152.145 37.7811C152.898 38.3848 153.8 38.6866 154.851 38.6866C155.689 38.6866 156.431 38.4949 157.077 38.1113C157.731 37.7207 158.242 37.1845 158.611 36.5027C158.988 35.8208 159.176 35.0431 159.176 34.1696C159.176 33.2818 158.984 32.4899 158.601 31.7939C158.217 31.0978 157.688 30.551 157.013 30.1532C156.346 29.7555 155.579 29.5531 154.712 29.546C154.052 29.546 153.388 29.6596 152.72 29.8869C152.052 30.1142 151.513 30.4125 151.101 30.7818L148.086 30.3343L149.311 19.34H161.307V22.1632H152.049L151.356 28.2676H151.484C151.91 27.8556 152.475 27.5112 153.178 27.2342C153.888 26.9572 154.648 26.8187 155.458 26.8187C156.786 26.8187 157.969 27.1348 159.006 27.7669C160.05 28.399 160.87 29.2619 161.466 30.3556C162.07 31.4423 162.368 32.6923 162.361 34.1056C162.368 35.519 162.049 36.7797 161.403 37.8876C160.763 38.9956 159.876 39.8691 158.739 40.5083C157.61 41.1404 156.314 41.4565 154.851 41.4565ZM166.253 41.1582V38.7718L173.635 31.1227C174.424 30.2917 175.074 29.5637 175.585 28.9387C176.103 28.3066 176.49 27.7065 176.746 27.1383C177.002 26.5701 177.13 25.9664 177.13 25.3272C177.13 24.6028 176.959 23.9778 176.618 23.4522C176.277 22.9196 175.812 22.5112 175.223 22.2271C174.633 21.9359 173.969 21.7903 173.231 21.7903C172.449 21.7903 171.767 21.9501 171.185 22.2697C170.603 22.5893 170.155 23.0403 169.843 23.6227C169.53 24.2051 169.374 24.8869 169.374 25.6681H166.231C166.231 24.34 166.537 23.1788 167.147 22.1845C167.758 21.1902 168.596 20.4196 169.662 19.8727C170.727 19.3187 171.938 19.0417 173.294 19.0417C174.665 19.0417 175.873 19.3152 176.917 19.862C177.968 20.4018 178.788 21.1404 179.378 22.0779C179.967 23.0083 180.262 24.0595 180.262 25.2314C180.262 26.041 180.109 26.8329 179.804 27.6071C179.505 28.3812 178.983 29.2441 178.238 30.1958C177.492 31.1404 176.455 32.2875 175.127 33.6369L170.791 38.1752V38.335H180.613V41.1582H166.253ZM188.838 38.1752L188.678 39.3365C188.571 40.1887 188.39 41.0765 188.135 41.9998C187.886 42.9302 187.627 43.7931 187.357 44.5886C187.094 45.3841 186.878 46.0162 186.707 46.4849H184.449C184.541 46.0446 184.669 45.448 184.832 44.6951C184.995 43.9494 185.155 43.1149 185.311 42.1916C185.468 41.2683 185.585 40.3272 185.663 39.3684L185.77 38.1752H188.838ZM200.098 41.5204C198.415 41.5133 196.977 41.0694 195.784 40.1887C194.591 39.3081 193.678 38.0261 193.046 36.3429C192.414 34.6596 192.098 32.6319 192.098 30.2598C192.098 27.8947 192.414 25.8741 193.046 24.198C193.685 22.5218 194.601 21.2434 195.794 20.3627C196.995 19.4821 198.429 19.0417 200.098 19.0417C201.767 19.0417 203.199 19.4856 204.392 20.3734C205.585 21.2541 206.498 22.5325 207.13 24.2086C207.769 25.8777 208.088 27.8947 208.088 30.2598C208.088 32.639 207.772 34.6703 207.14 36.3535C206.508 38.0297 205.596 39.3116 204.402 40.1994C203.209 41.0801 201.775 41.5204 200.098 41.5204ZM200.098 38.676C201.576 38.676 202.73 37.9551 203.561 36.5133C204.399 35.0716 204.818 32.987 204.818 30.2598C204.818 28.4487 204.626 26.9181 204.243 25.6681C203.866 24.411 203.323 23.4593 202.613 22.813C201.909 22.1596 201.071 21.8329 200.098 21.8329C198.628 21.8329 197.474 22.5573 196.636 24.0062C195.798 25.4551 195.375 27.5396 195.368 30.2598C195.368 32.0779 195.557 33.6156 195.933 34.8727C196.316 36.1227 196.86 37.0708 197.563 37.7172C198.266 38.3564 199.111 38.676 200.098 38.676ZM219.464 41.5204C217.78 41.5133 216.342 41.0694 215.149 40.1887C213.956 39.3081 213.043 38.0261 212.411 36.3429C211.779 34.6596 211.463 32.6319 211.463 30.2598C211.463 27.8947 211.779 25.8741 212.411 24.198C213.05 22.5218 213.966 21.2434 215.16 20.3627C216.36 19.4821 217.795 19.0417 219.464 19.0417C221.133 19.0417 222.564 19.4856 223.757 20.3734C224.95 21.2541 225.863 22.5325 226.495 24.2086C227.134 25.8777 227.454 27.8947 227.454 30.2598C227.454 32.639 227.138 34.6703 226.506 36.3535C225.873 38.0297 224.961 39.3116 223.768 40.1994C222.574 41.0801 221.14 41.5204 219.464 41.5204ZM219.464 38.676C220.941 38.676 222.095 37.9551 222.926 36.5133C223.764 35.0716 224.183 32.987 224.183 30.2598C224.183 28.4487 223.991 26.9181 223.608 25.6681C223.231 24.411 222.688 23.4593 221.978 22.813C221.275 22.1596 220.437 21.8329 219.464 21.8329C217.993 21.8329 216.839 22.5573 216.001 24.0062C215.163 25.4551 214.741 27.5396 214.734 30.2598C214.734 32.0779 214.922 33.6156 215.298 34.8727C215.682 36.1227 216.225 37.0708 216.928 37.7172C217.631 38.3564 218.476 38.676 219.464 38.676ZM238.829 41.5204C237.146 41.5133 235.707 41.0694 234.514 40.1887C233.321 39.3081 232.408 38.0261 231.776 36.3429C231.144 34.6596 230.828 32.6319 230.828 30.2598C230.828 27.8947 231.144 25.8741 231.776 24.198C232.416 22.5218 233.332 21.2434 234.525 20.3627C235.725 19.4821 237.16 19.0417 238.829 19.0417C240.498 19.0417 241.929 19.4856 243.122 20.3734C244.315 21.2541 245.228 22.5325 245.86 24.2086C246.499 25.8777 246.819 27.8947 246.819 30.2598C246.819 32.639 246.503 34.6703 245.871 36.3535C245.239 38.0297 244.326 39.3116 243.133 40.1994C241.94 41.0801 240.505 41.5204 238.829 41.5204ZM238.829 38.676C240.306 38.676 241.46 37.9551 242.291 36.5133C243.129 35.0716 243.548 32.987 243.548 30.2598C243.548 28.4487 243.357 26.9181 242.973 25.6681C242.597 24.411 242.053 23.4593 241.343 22.813C240.64 22.1596 239.802 21.8329 238.829 21.8329C237.359 21.8329 236.205 22.5573 235.367 24.0062C234.528 25.4551 234.106 27.5396 234.099 30.2598C234.099 32.0779 234.287 33.6156 234.663 34.8727C235.047 36.1227 235.59 37.0708 236.293 37.7172C236.996 38.3564 237.842 38.676 238.829 38.676Z" fill="#161616"/>
<path d="M107.857 28.4079C109.336 29.1303 109.336 31.1871 107.857 31.9095C94.778 38.2974 49.2304 59.9785 33.5176 59.9785C15.0901 59.9785 0.151367 46.6277 0.151367 30.1587C0.151367 13.6897 15.0901 0.338867 33.5176 0.338867C49.2304 0.338867 94.778 22.02 107.857 28.4079Z" fill="#FF574B"/>
<g filter="url(#filter0_d_15834_3927)">
<path d="M19.7174 26.6113C19.6511 25.9911 19.3718 25.5081 18.8794 25.1625C18.3917 24.8168 17.7572 24.644 16.9759 24.644C16.4267 24.644 15.9556 24.7269 15.5626 24.8926C15.1696 25.0583 14.8689 25.2832 14.6606 25.5673C14.4523 25.8514 14.3457 26.1757 14.341 26.5403C14.341 26.8433 14.4097 27.1061 14.547 27.3287C14.689 27.5512 14.8808 27.7406 15.1222 27.8968C15.3637 28.0484 15.6312 28.1762 15.9248 28.2804C16.2184 28.3845 16.5143 28.4721 16.8126 28.5431L18.1762 28.8841C18.7255 29.0119 19.2534 29.1847 19.76 29.4025C20.2714 29.6203 20.7283 29.8949 21.1308 30.2264C21.538 30.5578 21.8599 30.9579 22.0967 31.4267C22.3334 31.8954 22.4518 32.4447 22.4518 33.0744C22.4518 33.9267 22.234 34.6771 21.7984 35.3258C21.3628 35.9698 20.733 36.474 19.9092 36.8386C19.0901 37.1984 18.0981 37.3784 16.9333 37.3784C15.8017 37.3784 14.8192 37.2032 13.9859 36.8528C13.1573 36.5024 12.5086 35.9911 12.0399 35.3187C11.5758 34.6464 11.3249 33.8272 11.287 32.8613H13.8794C13.9172 33.368 14.0735 33.7894 14.3481 34.1255C14.6227 34.4617 14.9802 34.7127 15.4205 34.8784C15.8656 35.0441 16.3628 35.127 16.912 35.127C17.4849 35.127 17.9868 35.0417 18.4177 34.8713C18.8533 34.6961 19.1942 34.4546 19.4404 34.1468C19.6866 33.8343 19.8121 33.4698 19.8169 33.0531C19.8121 32.6743 19.7008 32.3618 19.483 32.1156C19.2652 31.8646 18.9598 31.6563 18.5669 31.4906C18.1786 31.3201 17.724 31.1686 17.2032 31.036L15.5484 30.6099C14.3505 30.3021 13.4035 29.8358 12.7075 29.2108C12.0162 28.581 11.6705 27.7453 11.6705 26.7037C11.6705 25.8466 11.9026 25.0962 12.3666 24.4522C12.8353 23.8083 13.4722 23.3088 14.2771 22.9537C15.082 22.5938 15.9935 22.4139 17.0115 22.4139C18.0436 22.4139 18.948 22.5938 19.7245 22.9537C20.5058 23.3088 21.1189 23.8036 21.564 24.438C22.0091 25.0678 22.2387 25.7922 22.2529 26.6113H19.7174ZM24.6872 41.2491V26.2491H27.2156V28.0531H27.3648C27.4974 27.7879 27.6844 27.5062 27.9259 27.2079C28.1673 26.9049 28.4941 26.6468 28.906 26.4338C29.3179 26.216 29.8435 26.1071 30.4827 26.1071C31.3255 26.1071 32.0854 26.3225 32.7625 26.7534C33.4443 27.1795 33.9841 27.8116 34.3818 28.6497C34.7843 29.483 34.9855 30.5057 34.9855 31.7179C34.9855 32.9158 34.789 33.9338 34.396 34.7718C34.003 35.6099 33.468 36.2491 32.7909 36.6895C32.1138 37.1298 31.3468 37.35 30.4898 37.35C29.8648 37.35 29.3463 37.2458 28.9344 37.0375C28.5225 36.8291 28.191 36.5782 27.9401 36.2846C27.6939 35.9863 27.5021 35.7046 27.3648 35.4395H27.2583V41.2491H24.6872ZM27.2085 31.7037C27.2085 32.4092 27.308 33.027 27.5068 33.5574C27.7104 34.0877 28.0016 34.502 28.3804 34.8002C28.7639 35.0938 29.228 35.2406 29.7725 35.2406C30.3406 35.2406 30.8165 35.0891 31.2 34.786C31.5835 34.4783 31.8724 34.0592 32.0665 33.5289C32.2654 32.9939 32.3648 32.3855 32.3648 31.7037C32.3648 31.0266 32.2677 30.4252 32.0736 29.8997C31.8795 29.3741 31.5906 28.9622 31.2071 28.6639C30.8236 28.3656 30.3454 28.2164 29.7725 28.2164C29.2232 28.2164 28.7568 28.3609 28.3733 28.6497C27.9898 28.9385 27.6986 29.3433 27.4997 29.8642C27.3056 30.385 27.2085 30.9982 27.2085 31.7037ZM42.0168 37.3713C40.923 37.3713 39.9784 37.144 39.183 36.6895C38.3923 36.2302 37.7838 35.5815 37.3577 34.7434C36.9316 33.9006 36.7185 32.9087 36.7185 31.7676C36.7185 30.6454 36.9316 29.6606 37.3577 28.813C37.7886 27.9608 38.3899 27.2979 39.1617 26.8244C39.9334 26.3462 40.8402 26.1071 41.8818 26.1071C42.5542 26.1071 43.1887 26.216 43.7852 26.4338C44.3866 26.6468 44.9169 26.9783 45.3762 27.4281C45.8402 27.8779 46.2048 28.4508 46.4699 29.1468C46.7351 29.8381 46.8676 30.662 46.8676 31.6184V32.4068H37.9259V30.6738H44.4031C44.3984 30.1814 44.2919 29.7434 44.0835 29.3599C43.8752 28.9717 43.584 28.6663 43.21 28.4437C42.8406 28.2212 42.4098 28.1099 41.9173 28.1099C41.3918 28.1099 40.9301 28.2377 40.5324 28.4934C40.1347 28.7444 39.8245 29.0758 39.602 29.4877C39.3842 29.8949 39.2729 30.3424 39.2682 30.8301V32.3429C39.2682 32.9773 39.3842 33.5218 39.6162 33.9764C39.8482 34.4262 40.1726 34.7718 40.5892 35.0133C41.0059 35.2501 41.4936 35.3684 42.0523 35.3684C42.4263 35.3684 42.7649 35.3163 43.0679 35.2122C43.3709 35.1033 43.6337 34.9447 43.8563 34.7363C44.0788 34.528 44.2469 34.2699 44.3605 33.9622L46.7611 34.2321C46.6096 34.8665 46.3208 35.4205 45.8946 35.894C45.4732 36.3627 44.9334 36.7273 44.2753 36.9877C43.6172 37.2434 42.8643 37.3713 42.0168 37.3713ZM51.6137 30.7662V37.1582H49.0427V26.2491H51.5001V28.1028H51.6279C51.8789 27.492 52.279 27.0067 52.8282 26.6468C53.3822 26.287 54.0664 26.1071 54.8808 26.1071C55.6336 26.1071 56.2894 26.2681 56.8481 26.59C57.4115 26.912 57.8472 27.3784 58.1549 27.9892C58.4674 28.6 58.6213 29.341 58.6166 30.2122V37.1582H56.0455V30.6099C56.0455 29.8807 55.8561 29.3102 55.4774 28.8983C55.1033 28.4863 54.5848 28.2804 53.922 28.2804C53.4722 28.2804 53.0721 28.3798 52.7217 28.5787C52.376 28.7728 52.1038 29.0545 51.9049 29.4238C51.7108 29.7931 51.6137 30.2406 51.6137 30.7662ZM66.6776 26.2491V28.2377H60.4063V26.2491H66.6776ZM61.9546 23.6355H64.5257V33.877C64.5257 34.2226 64.5777 34.4877 64.6819 34.6724C64.7908 34.8523 64.9329 34.9754 65.108 35.0417C65.2832 35.108 65.4774 35.1412 65.6904 35.1412C65.8514 35.1412 65.9982 35.1293 66.1308 35.1056C66.2681 35.082 66.3722 35.0607 66.4433 35.0417L66.8765 37.0517C66.7392 37.099 66.5427 37.1511 66.287 37.2079C66.0361 37.2647 65.7283 37.2979 65.3637 37.3074C64.7198 37.3263 64.1398 37.2292 63.6237 37.0162C63.1076 36.7984 62.698 36.4622 62.395 36.0076C62.0967 35.5531 61.9499 34.9849 61.9546 34.3031V23.6355Z" fill="white"/>
</g>
<defs>
<filter id="filter0_d_15834_3927" x="7.28711" y="22.4141" width="63.5894" height="26.835" filterUnits="userSpaceOnUse" color-interpolation-filters="sRGB">
<feFlood flood-opacity="0" result="BackgroundImageFix"/>
<feColorMatrix in="SourceAlpha" type="matrix" values="0 0 0 0 0 0 0 0 0 0 0 0 0 0 0 0 0 0 127 0" result="hardAlpha"/>
<feOffset dy="4"/>
<feGaussianBlur stdDeviation="2"/>
<feComposite in2="hardAlpha" operator="out"/>
<feColorMatrix type="matrix" values="0 0 0 0 0 0 0 0 0 0 0 0 0 0 0 0 0 0 0.25 0"/>
<feBlend mode="normal" in2="BackgroundImageFix" result="effect1_dropShadow_15834_3927"/>
<feBlend mode="normal" in="SourceGraphic" in2="effect1_dropShadow_15834_3927" result="shape"/>
</filter>
</defs>
</svg>
